<?xml version="1.0" standalone="no"?>
<!DOCTYPE svg PUBLIC "-//W3C//DTD SVG 20010904//EN"
 "http://www.w3.org/TR/2001/REC-SVG-20010904/DTD/svg10.dtd">
<svg version="1.0" xmlns="http://www.w3.org/2000/svg"
 width="800.000000pt" height="600.000000pt" viewBox="0 0 800.000000 600.000000"
 preserveAspectRatio="xMidYMid meet">

<g transform="translate(0.000000,600.000000) scale(0.100000,-0.100000)"
fill="#fff" stroke="none">
<path d="M3395 4807 c-35 -75 -56 -184 -62 -322 -3 -66 -12 -145 -19 -175 -9
-36 -14 -114 -14 -236 0 -160 3 -195 25 -289 14 -59 36 -131 49 -159 13 -28
31 -82 40 -120 23 -93 36 -122 95 -209 l50 -75 -18 -37 c-17 -35 -24 -40 -101
-62 -199 -57 -450 -167 -472 -207 -5 -10 -7 -23 -5 -31 8 -18 -155 -138 -274
-201 -120 -64 -158 -94 -216 -169 -51 -67 -128 -221 -166 -335 -53 -156 -118
-543 -139 -831 l-12 -169 -176 0 c-96 0 -181 -4 -188 -9 -8 -5 -12 -17 -10
-27 3 -19 58 -19 2218 -19 2160 0 2215 0 2218 19 2 10 -2 22 -10 27 -7 5 -91
9 -185 9 l-173 0 0 28 c-1 118 -45 484 -86 702 -33 176 -56 260 -109 385 -86
205 -167 298 -342 394 -57 31 -141 83 -187 116 -70 50 -85 65 -85 87 -1 19
-10 33 -28 44 -16 9 -40 25 -55 36 -38 25 -283 121 -388 151 -79 23 -86 27
-103 62 l-18 37 56 86 c49 76 95 186 95 231 0 9 12 41 26 71 14 30 39 109 55
175 26 106 29 137 29 278 0 95 -6 186 -14 230 -8 40 -17 124 -21 187 -3 63
-13 149 -21 190 -17 85 -61 184 -84 188 -9 1 -44 -20 -79 -48 -35 -28 -87 -63
-115 -78 l-51 -27 -320 0 -320 0 -55 27 c-30 15 -82 50 -115 78 -32 27 -67 50
-78 50 -12 0 -26 -17 -42 -53z m101 -84 c-4 -4 -11 -1 -16 7 -16 25 -11 35 7
17 9 -9 13 -20 9 -24z m1034 17 c0 -11 -7 -20 -15 -20 -13 0 -14 4 -5 20 6 11
13 20 15 20 3 0 5 -9 5 -20z m-1101 -148 c1 -30 -5 -52 -19 -69 -24 -31 -25
-24 -8 84 9 60 13 72 19 53 4 -14 7 -45 8 -68z m126 57 c8 -25 8 -25 -33 -32
-40 -8 -57 17 -27 39 27 20 53 17 60 -7z m136 0 l55 -12 -14 -51 c-9 -32 -16
-118 -19 -227 l-5 -176 113 -118 114 -118 5 -91 c5 -89 6 -91 30 -91 25 0 25
1 28 96 3 93 2 98 -25 129 -25 30 -28 42 -31 127 -3 70 -8 96 -19 100 -24 9
-38 -15 -44 -75 -5 -57 -5 -57 -18 -27 -9 21 -11 60 -6 135 6 110 0 134 -31
128 -17 -3 -19 -15 -22 -102 -2 -84 -5 -96 -17 -86 -12 10 -15 42 -15 154 0
139 17 253 42 283 7 9 35 13 84 13 l74 0 0 -172 c0 -95 4 -179 9 -186 5 -8 17
-12 27 -10 18 3 19 16 22 186 l2 183 83 -3 82 -3 19 -55 c25 -74 36 -361 15
-386 -12 -15 -15 -5 -19 82 -5 98 -5 99 -30 99 l-25 0 -3 -129 c-2 -83 -7
-135 -15 -145 -10 -12 -13 -2 -17 50 -4 52 -8 64 -24 67 -29 6 -36 -16 -36
-114 0 -84 -2 -92 -25 -114 -23 -22 -25 -30 -25 -122 0 -79 3 -100 15 -104 32
-13 45 15 45 100 l1 81 115 120 115 120 -5 170 c-3 106 -11 191 -20 225 -8 30
-14 55 -13 56 1 1 22 6 47 12 25 5 53 13 63 17 12 5 17 2 17 -9 0 -9 -6 -16
-14 -16 -20 0 -37 -25 -30 -44 3 -9 17 -16 30 -16 30 0 32 -26 3 -33 -27 -7
-22 -39 9 -52 27 -12 28 -22 1 -30 -28 -9 -22 -49 9 -53 31 -5 28 -30 -5 -34
-22 -2 -28 -8 -28 -28 0 -20 6 -26 28 -28 38 -5 35 -30 -5 -34 -46 -4 -51 -35
-9 -51 35 -13 41 -27 12 -27 -26 0 -41 -22 -34 -48 3 -15 1 -22 -8 -22 -8 0
-70 -59 -138 -131 l-123 -131 4 -79 3 -80 -25 8 c-33 10 -108 9 -145 -1 -25
-7 -28 -6 -17 5 7 8 12 40 12 80 l0 67 -136 138 c-102 104 -136 145 -134 162
1 17 -5 23 -29 28 -40 8 -40 20 0 28 25 5 30 10 27 28 -2 17 -11 24 -30 26
-31 4 -39 32 -9 32 28 0 47 26 31 45 -7 8 -21 15 -31 15 -27 0 -24 28 4 32 14
2 22 10 22 23 0 11 -10 24 -22 30 -28 12 -30 25 -4 25 24 0 45 25 37 45 -3 8
-14 15 -25 15 -27 0 -16 28 12 32 30 4 36 47 8 55 -11 3 -22 12 -25 20 -4 9
-1 13 6 10 7 -3 38 -11 69 -18z m807 15 c15 -4 22 -14 22 -30 0 -21 -3 -23
-32 -17 -41 7 -41 7 -33 32 7 23 9 24 43 15z m107 -51 c3 -32 9 -71 11 -88 l6
-30 -26 30 c-14 17 -23 36 -21 43 3 8 5 34 5 58 0 64 17 54 25 -13z m-1070
-243 c0 -104 -3 -190 -7 -190 -18 0 -23 37 -28 198 -3 110 -1 174 5 176 29 12
31 2 30 -184z m964 181 c11 -7 12 -39 8 -167 -5 -151 -11 -204 -26 -204 -3 0
-6 69 -6 152 0 84 -4 170 -8 191 -8 38 2 47 32 28z m-1037 -386 c13 -39 15
-40 68 -46 30 -3 69 -13 86 -22 64 -33 275 -277 240 -277 -3 0 -52 30 -108 67
-123 79 -145 89 -221 98 -41 5 -60 13 -68 26 -12 23 -6 23 56 4 36 -10 52 -11
62 -3 36 30 -1 56 -97 67 l-55 6 -17 60 c-25 89 -23 209 4 265 l22 45 7 -125
c4 -69 13 -143 21 -165z m1155 110 c-2 -44 -12 -106 -21 -137 l-17 -58 -45 0
c-60 0 -114 -23 -114 -49 0 -30 15 -33 71 -16 57 16 62 16 54 -7 -4 -9 -32
-19 -81 -26 -67 -11 -87 -20 -184 -82 -127 -82 -140 -88 -140 -67 0 23 217
245 261 268 21 10 56 19 77 19 22 0 44 6 50 13 19 24 32 93 39 207 l6 115 24
-50 c21 -43 23 -61 20 -130z m14 -292 c-27 -33 -27 -63 -1 -70 11 -3 20 -8 20
-12 0 -21 -62 -235 -75 -260 -8 -17 -29 -46 -46 -65 -27 -31 -33 -34 -55 -24
-13 6 -24 15 -24 20 0 14 53 92 77 113 33 28 75 158 59 180 -15 22 -42 10 -55
-23 -6 -17 -10 -21 -10 -10 -1 24 -36 40 -101 47 l-55 7 30 15 c45 24 95 32
95 15 0 -7 7 -19 15 -26 11 -9 19 -7 40 14 25 25 93 156 97 186 1 8 3 -6 5
-33 3 -37 -1 -53 -16 -74z m-1223 0 c12 -22 33 -54 47 -72 22 -25 30 -29 46
-21 10 6 19 17 19 25 0 18 49 11 95 -14 l30 -15 -55 -7 c-61 -7 -91 -17 -102
-33 -4 -6 -15 0 -27 15 -18 22 -21 23 -37 7 -15 -15 -15 -21 11 -97 16 -49 33
-82 43 -86 9 -3 32 -31 51 -61 27 -45 31 -58 20 -65 -26 -16 -47 -9 -79 28
-41 46 -55 81 -86 204 -29 118 -29 115 -4 122 11 3 20 14 20 25 0 10 -9 27
-20 37 -15 14 -20 30 -19 69 l0 51 14 -36 c7 -19 22 -53 33 -76z m145 -226
c45 -45 122 -83 188 -92 42 -6 45 -9 41 -31 -6 -34 20 -40 63 -15 20 12 43 21
52 21 9 0 24 7 34 16 29 26 92 29 136 7 124 -63 132 -66 148 -53 9 7 13 20 10
29 -4 14 7 19 57 30 80 16 110 32 175 94 29 27 55 48 58 46 2 -3 -1 -21 -7
-41 -9 -32 -19 -39 -87 -68 -135 -58 -157 -74 -202 -150 -23 -39 -44 -70 -48
-70 -3 0 -28 7 -55 15 -63 19 -172 19 -226 0 -23 -8 -46 -15 -51 -15 -4 0 -23
26 -43 58 -50 82 -79 105 -188 152 -95 41 -97 43 -112 87 -15 42 -14 44 2 32
9 -8 34 -31 55 -52z m183 38 c28 -14 63 -39 80 -56 l29 -31 -55 7 c-78 10
-152 40 -185 75 l-29 30 55 0 c39 0 70 -7 105 -25z m660 -11 c-41 -35 -99 -57
-183 -70 l-48 -6 30 32 c44 48 119 80 185 79 l55 0 -39 -35z m-755 -182 c-16
-5 -41 5 -41 17 0 7 10 6 26 -1 15 -7 21 -14 15 -16z m757 12 c-9 -9 -22 -14
-30 -11 -8 3 -4 8 12 15 35 15 37 14 18 -4z m-626 -151 c63 -106 65 -110 71
-195 3 -49 4 -88 2 -88 -2 0 -14 44 -26 98 -21 92 -26 102 -90 182 -65 83 -67
85 -46 97 12 7 23 12 24 13 0 0 30 -48 65 -107z m568 81 c0 -3 -28 -40 -62
-82 -59 -71 -65 -84 -90 -182 l-28 -105 6 93 c6 99 4 95 120 280 12 18 18 20
34 12 11 -6 20 -13 20 -16z m-674 -96 c31 -40 61 -78 66 -84 5 -7 23 -69 40
-140 l31 -128 -23 -18 c-12 -10 -25 -18 -29 -18 -4 0 -29 29 -55 65 l-48 65
22 34 c15 25 19 43 14 63 -14 56 -53 131 -88 171 -34 37 -35 41 -19 51 10 6
21 11 24 11 4 0 33 -33 65 -72z m763 63 c11 -7 8 -16 -16 -48 -37 -47 -78
-127 -88 -171 -5 -24 -1 -41 13 -67 l21 -34 -47 -65 c-26 -36 -52 -66 -58 -66
-6 0 -19 9 -29 20 -18 19 -17 24 10 144 27 121 29 125 94 209 67 87 75 94 100
78z m-848 -127 c28 -46 48 -109 39 -124 -13 -22 -140 179 -140 222 0 16 75
-58 101 -98z m939 77 c-16 -56 -117 -214 -131 -205 -14 9 -11 26 20 89 22 47
101 145 116 145 2 0 0 -13 -5 -29z m-419 -22 c19 -7 35 -13 37 -14 1 -1 -4
-15 -12 -31 -8 -17 -18 -78 -22 -145 -8 -133 1 -162 61 -199 19 -12 35 -26 35
-31 0 -4 -15 -16 -32 -26 -50 -26 -267 -25 -327 1 l-42 20 53 47 53 47 -3 122
c-2 79 -8 136 -18 158 -8 19 -13 36 -11 38 24 24 171 32 228 13z m-506 -387
c1 -210 29 -260 195 -347 63 -33 134 -79 159 -102 24 -24 49 -43 55 -43 6 0
28 18 49 39 22 23 82 62 138 91 117 60 166 100 190 156 21 47 38 177 33 255
l-4 54 11 -40 c6 -22 9 -83 6 -136 -3 -75 -9 -107 -29 -151 -29 -63 -55 -85
-180 -152 -99 -54 -208 -130 -208 -147 0 -6 -24 11 -54 37 -29 27 -105 77
-169 112 -65 35 -128 77 -146 97 -42 48 -64 131 -64 236 0 70 9 149 16 149 1
0 2 -48 2 -108z m-95 -6 l0 -34 -77 -7 c-43 -3 -100 -8 -128 -12 -27 -3 -47
-2 -44 1 7 7 228 86 242 86 4 0 7 -15 7 -34z m242 -112 c-3 -28 3 -59 21 -102
l24 -61 -26 14 c-71 36 -99 94 -108 224 l-5 76 49 -55 c46 -50 50 -58 45 -96z
m609 46 c-14 -105 -31 -143 -82 -179 -23 -17 -44 -30 -46 -28 -2 2 6 26 18 53
13 29 22 69 22 100 0 48 4 57 46 103 25 28 48 46 49 41 2 -6 -1 -46 -7 -90z
m287 59 c68 -23 122 -43 120 -45 -5 -5 -240 16 -250 22 -10 6 -11 64 -1 64 5
0 63 -18 131 -41z m-1115 -123 c10 -74 47 -156 87 -195 21 -20 88 -63 150 -96
123 -66 211 -134 174 -135 -11 0 -29 9 -39 20 -26 28 -125 82 -140 76 -7 -2
-46 24 -87 60 -40 35 -85 67 -101 71 -21 4 -26 10 -22 24 3 10 -7 44 -25 78
-36 72 -41 141 -10 141 4 0 10 -20 13 -44z m997 -7 c0 -9 -13 -46 -30 -81 -16
-34 -30 -73 -30 -85 0 -15 -6 -23 -16 -23 -15 0 -90 -57 -141 -107 -12 -13
-32 -23 -44 -23 -28 0 -145 -65 -153 -85 -3 -8 -14 -15 -25 -15 -12 0 -18 5
-15 13 6 16 108 84 208 138 44 24 95 57 114 73 42 37 77 109 93 190 11 53 14
57 26 41 7 -11 13 -27 13 -36z m-1090 3 c0 -32 -5 -41 -25 -50 -20 -9 -25 -9
-25 2 0 37 14 75 29 79 9 3 17 5 19 6 1 0 2 -16 2 -37z m1188 23 c2 -2 2 -21
0 -43 -3 -35 -5 -39 -19 -29 -9 7 -19 29 -23 50 -7 37 -6 38 16 32 13 -4 24
-9 26 -10z m-1292 -32 c-3 -21 -6 -50 -6 -64 0 -22 -14 -36 -79 -79 l-80 -52
-34 26 c-36 28 -81 88 -97 131 -9 23 -6 27 28 42 31 14 109 24 246 31 28 2 28
1 22 -35z m674 22 c85 0 168 4 184 9 29 9 29 8 23 -23 -4 -18 -21 -65 -39
-106 -30 -67 -39 -77 -102 -119 l-68 -46 -30 25 c-17 14 -44 33 -60 41 -22 12
-40 37 -69 99 -21 46 -39 95 -39 110 0 24 3 26 23 19 12 -5 92 -8 177 -9z
m938 -16 c23 -10 42 -24 42 -32 0 -36 -117 -174 -139 -165 -5 2 -42 26 -84 53
l-77 50 0 62 0 62 108 -6 c69 -4 122 -12 150 -24z m-1469 -115 c6 -15 10 -28
9 -29 -3 -2 -38 -13 -203 -66 -19 -6 -26 -6 -20 0 13 12 188 121 196 121 3 0
11 -12 18 -26z m1182 -30 c50 -31 88 -58 85 -61 -4 -5 -195 54 -205 63 -5 5
17 54 24 54 3 0 46 -25 96 -56z m-1617 -17 c27 -33 44 -63 40 -69 -4 -7 -29
-40 -54 -74 -26 -35 -67 -95 -90 -135 -48 -79 -58 -77 -59 12 -2 86 64 300 98
318 9 5 16 9 17 8 1 -1 22 -28 48 -60z m2009 49 c22 -17 72 -161 88 -251 11
-66 6 -135 -11 -135 -5 0 -22 24 -39 54 -17 29 -60 92 -95 139 l-64 86 39 42
c21 23 41 50 44 60 7 22 14 23 38 5z m-2211 -178 c-27 -105 -26 -192 2 -247
15 -27 16 -38 6 -62 -7 -16 -16 -29 -19 -29 -13 0 -50 75 -61 123 -13 58 0
153 31 224 20 47 46 83 59 83 3 0 -5 -42 -18 -92z m2370 38 c53 -104 63 -229
24 -312 -30 -64 -41 -72 -59 -38 -12 23 -12 30 4 60 29 58 32 120 10 219 -10
50 -22 98 -26 108 -15 36 26 5 47 -37z m-1699 27 c12 -15 13 -21 3 -35 -11
-15 -15 -14 -45 9 -25 20 -29 28 -19 34 21 14 44 10 61 -8z m1057 7 c8 -5 12
-10 10 -12 -3 -2 -17 -14 -32 -26 l-26 -24 -12 22 c-10 18 -8 24 7 36 21 16
33 17 53 4z m-1143 -71 l43 -40 -42 -70 c-23 -39 -46 -73 -50 -75 -13 -8 -44
34 -78 102 -40 83 -39 98 8 111 62 17 75 14 119 -28z m1306 22 c15 -6 27 -17
27 -24 0 -39 -100 -202 -114 -186 -1 2 -22 37 -46 77 l-42 72 43 40 c46 43 67
46 132 21z m-1120 -19 c16 -18 13 -23 -62 -95 -74 -72 -102 -94 -85 -64 45 74
115 177 122 177 5 0 16 -8 25 -18z m885 -59 c80 -127 79 -132 -14 -40 -85 84
-88 89 -70 102 11 8 23 15 27 15 4 0 29 -35 57 -77z m-1768 63 c0 -2 -14 -33
-30 -68 -17 -36 -42 -109 -56 -164 -22 -86 -25 -114 -21 -214 6 -150 23 -195
217 -585 54 -107 54 -107 -72 46 -96 118 -151 212 -185 314 -21 66 -27 105
-31 222 -4 124 -2 150 16 210 23 73 77 170 120 216 23 24 42 35 42 23z m2620
-33 c44 -54 106 -182 120 -250 16 -72 7 -264 -14 -348 -28 -105 -99 -231 -208
-367 -56 -70 -104 -125 -106 -123 -3 2 10 27 27 54 17 28 42 79 57 113 14 35
52 117 84 183 82 168 95 216 94 355 0 126 -19 212 -74 342 -17 39 -30 72 -30
74 0 14 23 -1 50 -33z m-2237 -79 c-80 -123 -176 -317 -215 -432 -30 -92 -32
-105 -32 -249 -1 -84 -4 -149 -7 -145 -4 4 -15 32 -25 62 -29 84 -27 281 4
375 32 99 121 275 189 374 50 72 64 86 98 96 22 6 41 11 43 9 2 -1 -23 -42
-55 -90z m1795 80 c25 -5 42 -23 87 -89 145 -216 225 -419 225 -576 0 -60 -28
-199 -47 -234 -4 -7 -8 52 -8 133 -1 142 -2 150 -37 253 -51 149 -137 317
-252 492 -19 29 -16 31 32 21z m-64 -79 c20 -30 36 -60 36 -67 0 -16 -36 -76
-63 -105 -20 -22 -21 -22 -40 -5 -10 9 -28 29 -38 43 l-19 27 35 58 c20 33 38
69 41 82 4 12 7 22 9 22 1 0 19 -25 39 -55z m-1614 32 c0 -7 17 -42 39 -77
l38 -64 -35 -43 c-20 -24 -39 -43 -43 -43 -12 0 -79 107 -79 126 0 21 58 114
71 114 5 0 9 -6 9 -13z m475 -1 c15 -11 17 -18 10 -35 l-10 -20 -33 20 c-26
17 -30 24 -21 35 15 18 30 18 54 0z m665 -1 c7 -9 11 -17 9 -18 -2 -2 -16 -11
-31 -20 -26 -16 -28 -16 -38 4 -7 11 -10 22 -8 23 8 7 44 25 49 26 4 0 12 -7
19 -15z m-580 -123 c-27 -37 -61 -80 -75 -97 l-25 -30 10 29 c6 16 27 67 46
112 l36 83 29 -15 29 -14 -50 -68z m500 -11 c22 -52 39 -96 36 -98 -2 -3 -34
35 -71 83 l-66 88 23 18 c13 9 26 14 30 10 4 -4 26 -50 48 -101z m-1754 61
c-37 -71 -48 -153 -43 -297 10 -254 61 -367 291 -648 81 -99 122 -179 139
-270 19 -105 -1 -102 -48 7 -40 92 -97 180 -189 294 -204 253 -260 387 -260
617 -1 124 1 133 28 185 31 59 84 140 92 140 2 0 -2 -13 -10 -28z m1105 -9
c27 -18 38 -31 34 -42 -50 -134 -81 -211 -85 -211 -3 0 -39 30 -79 66 l-72 67
78 73 c43 40 79 73 81 74 1 0 21 -12 43 -27z m879 -57 c33 -32 60 -61 60 -66
0 -9 -106 -106 -131 -120 -14 -8 -23 8 -58 99 -22 59 -41 111 -41 114 0 4 17
17 38 31 43 27 42 28 132 -58z m1042 -30 c40 -80 52 -172 38 -289 -21 -179
-80 -299 -255 -522 -104 -132 -166 -229 -200 -315 -16 -39 -34 -70 -42 -70 -7
0 -13 1 -13 3 0 1 6 36 14 77 18 92 66 182 155 288 151 181 214 290 253 434
17 66 22 112 22 223 1 138 0 146 -40 265 -11 32 40 -38 68 -94z m-1393 30 c-2
-2 -19 -11 -36 -20 l-33 -17 0 29 c0 39 38 58 59 30 7 -11 11 -21 10 -22z
m-251 22 c12 -12 17 -58 7 -58 -9 0 -65 30 -65 34 0 33 35 47 58 24z m122 -25
c0 -36 -22 -205 -26 -200 -3 2 -14 78 -29 190 -5 36 -4 37 25 37 26 0 30 -4
30 -27z m-1309 -72 c7 -19 28 -54 46 -78 27 -35 31 -47 23 -63 -16 -29 -50
-180 -51 -225 l-1 -40 -20 45 c-33 72 -48 139 -48 224 0 98 19 220 31 191 4
-11 13 -35 20 -54z m427 -17 l33 -44 -75 -113 c-41 -61 -89 -142 -107 -179
-18 -38 -36 -68 -40 -68 -11 0 -32 60 -31 89 1 39 63 197 120 304 39 74 48 86
57 72 5 -9 25 -37 43 -61z m2181 7 c21 -130 9 -247 -37 -349 l-19 -43 -7 61
c-4 34 -18 98 -31 143 l-23 81 23 30 c30 40 65 111 65 131 0 8 4 15 9 15 4 0
13 -31 20 -69z m-344 -73 c93 -195 112 -278 73 -325 -9 -11 -19 1 -50 59 -22
40 -70 118 -106 173 -37 55 -68 103 -70 107 -4 9 70 117 81 118 5 0 37 -60 72
-132z m-1041 -67 c9 -64 20 -126 23 -138 l5 -23 -58 20 c-33 11 -105 43 -162
71 l-103 50 42 52 c22 29 58 73 78 98 l36 46 61 -30 61 -30 17 -116z m331 82
c90 -111 93 -101 -40 -163 -109 -51 -195 -82 -195 -70 0 20 42 265 46 269 3 4
97 55 110 60 1 1 37 -42 79 -96z m-972 37 c-4 -14 1 -22 15 -27 19 -7 17 -12
-29 -68 -164 -198 -289 -452 -329 -670 -15 -78 -23 -70 -34 32 -6 54 -3 75 23
152 56 167 204 429 316 559 41 48 45 50 38 22z m1548 -174 c91 -134 164 -280
207 -411 28 -83 29 -95 21 -160 -6 -38 -11 -74 -13 -80 -2 -5 -13 35 -26 90
-50 223 -155 432 -319 635 -37 46 -48 66 -38 68 18 4 30 29 21 45 -19 38 79
-87 147 -187z m-1359 12 c-14 -27 -29 -48 -33 -48 -11 0 -109 79 -109 88 0 5
16 27 36 51 l36 42 47 -43 48 -43 -25 -47z m1117 0 c-28 -27 -54 -48 -59 -48
-4 0 -20 21 -34 47 l-27 46 48 43 48 42 37 -41 38 -42 -51 -47z m-1236 -59
l64 -51 -34 -81 c-19 -45 -40 -95 -46 -110 l-13 -29 -49 40 c-28 22 -65 53
-84 69 l-33 28 62 93 c34 50 63 92 65 92 3 0 33 -23 68 -51z m218 31 c15 0 9
-17 -31 -103 -112 -237 -210 -598 -210 -774 l0 -53 -36 0 -36 0 7 63 c29 277
100 533 212 770 39 80 60 114 67 107 5 -5 18 -10 27 -10z m1172 -66 c31 -47
57 -89 57 -93 0 -20 -155 -148 -163 -134 -6 11 -75 185 -79 200 -3 10 108 112
122 113 4 0 32 -39 63 -86z m-274 19 c116 -233 210 -563 228 -800 l6 -83 -30
0 -30 0 -7 88 c-16 199 -108 525 -206 729 -27 58 -50 107 -50 109 0 2 12 5 52
13 4 0 21 -25 37 -56z m1180 -49 c2 -181 -37 -263 -252 -526 -76 -92 -152
-213 -169 -270 -10 -34 -15 -38 -44 -38 -31 0 -33 2 -24 24 35 94 100 199 190
311 87 107 187 257 216 320 28 66 63 203 65 255 1 67 18 0 18 -76z m-3296 -24
c27 -143 85 -244 310 -537 62 -81 147 -232 147 -261 0 -7 -12 -12 -28 -12 -24
0 -31 7 -56 64 -35 82 -99 178 -190 286 -100 119 -173 234 -196 308 -15 48
-20 91 -19 171 0 117 8 113 32 -19z m1551 -16 l79 -28 51 18 c28 10 104 40
169 68 65 27 120 48 121 47 2 -2 15 -27 30 -56 l26 -51 -93 -55 c-50 -30 -139
-80 -197 -111 l-105 -55 -132 69 c-124 65 -263 147 -263 156 0 2 12 28 26 57
l27 54 91 -42 c50 -24 127 -56 170 -71z m-216 -131 c41 -24 124 -69 185 -100
l112 -56 110 56 c61 31 152 81 204 112 51 30 97 55 101 55 4 0 13 -14 19 -30
10 -30 9 -32 -57 -80 -91 -67 -199 -128 -298 -167 l-82 -33 -51 20 c-87 34
-193 90 -276 146 -125 84 -119 77 -105 119 l12 36 26 -17 c15 -10 60 -37 100
-61z m-391 -134 c-5 -22 -13 -39 -17 -39 -13 0 -153 96 -173 118 -18 19 -18
22 2 61 l21 41 89 -71 88 -71 -10 -39z m1562 142 l20 -39 -44 -41 c-44 -41
-132 -101 -147 -101 -7 0 -32 80 -26 84 2 1 18 13 35 25 18 12 56 42 85 67 28
24 53 44 55 44 1 0 12 -18 22 -39z m-1949 -9 c0 -9 -5 -24 -10 -32 -7 -11 -10
-5 -10 23 0 23 4 36 10 32 6 -3 10 -14 10 -23z m2170 -14 l-1 -43 -13 30 c-9
20 -10 34 -3 43 15 19 17 15 17 -30z m-2741 -130 c27 -43 28 -48 13 -61 -27
-24 -122 -68 -122 -57 0 14 29 209 36 244 6 28 7 26 25 -25 11 -30 32 -75 48
-101z m3375 37 c9 -60 19 -123 22 -138 l6 -28 -59 30 c-32 17 -64 34 -70 39
-9 6 -1 31 32 97 25 49 45 96 45 104 0 36 9 -3 24 -104z m-2094 -16 c96 -64
240 -138 316 -163 50 -16 53 -16 115 7 98 37 196 89 304 161 54 36 100 65 102
63 1 -2 6 -18 9 -35 6 -31 4 -33 -102 -102 -157 -102 -328 -185 -380 -185 -53
0 -226 85 -380 186 -60 39 -110 72 -112 74 -1 1 3 16 9 33 7 20 15 29 22 24 7
-4 50 -32 97 -63z m-401 -85 c34 -18 50 -32 46 -42 -3 -7 -8 -31 -11 -53 -4
-21 -11 -39 -17 -39 -37 0 -197 141 -197 173 0 8 5 28 11 45 l11 31 53 -43
c29 -24 76 -56 104 -72z m1692 7 c-24 -33 -99 -97 -152 -129 l-36 -22 -7 37
c-3 21 -9 47 -12 59 -5 18 4 26 48 51 29 17 76 49 103 71 l50 40 13 -39 c12
-35 12 -41 -7 -68z m-1117 -167 c71 -35 144 -67 163 -70 62 -12 241 69 441
198 51 34 94 59 96 57 2 -2 11 -27 19 -56 l16 -52 -42 -34 c-118 -96 -258
-170 -404 -212 -98 -29 -114 -28 -238 12 -135 44 -319 147 -383 216 -21 22
-21 24 -6 79 l16 55 97 -64 c53 -35 154 -93 225 -129z m-1334 58 c28 -35 50
-65 48 -66 -8 -7 -169 -77 -230 -100 l-68 -25 0 47 c0 106 5 113 86 151 41 19
79 40 86 48 15 19 18 17 78 -55z m723 -72 c48 -25 48 -25 42 -65 -3 -21 -8
-41 -11 -44 -9 -10 -77 31 -125 76 -68 63 -91 102 -83 142 l6 31 62 -58 c34
-31 83 -68 109 -82z m2507 69 c41 -20 60 -35 60 -47 0 -11 3 -47 6 -81 l7 -61
-42 15 c-80 28 -261 107 -261 114 0 3 23 34 52 68 l52 62 33 -20 c19 -12 60
-34 93 -50z m-727 34 c9 -49 -84 -158 -170 -198 -41 -20 -53 -11 -52 40 0 26
8 35 65 70 35 22 81 57 101 78 21 20 40 37 44 37 4 0 9 -12 12 -27z m-1456
-139 c152 -109 366 -197 478 -197 114 1 334 92 480 199 35 26 67 46 72 46 4
-1 13 -26 19 -58 l12 -56 -77 -49 c-83 -54 -203 -104 -283 -119 -82 -16 -403
-12 -478 5 -74 18 -249 101 -298 142 l-33 28 12 58 c6 31 13 57 15 57 1 0 38
-25 81 -56z m-356 -112 c62 -29 66 -35 53 -101 -4 -20 -12 -31 -24 -31 -27 0
-105 57 -160 117 -50 55 -58 78 -44 130 6 21 10 19 62 -32 31 -32 79 -67 113
-83z m1808 -2 c-53 -63 -126 -118 -168 -126 l-31 -6 0 53 0 54 51 23 c27 13
78 50 112 82 l62 58 8 -43 c9 -42 7 -46 -34 -95z m-2359 34 c0 -22 -259 -123
-357 -139 l-43 -7 0 40 0 39 88 32 c48 17 125 49 172 70 l85 39 28 -31 c15
-17 27 -36 27 -43z m2935 23 c55 -24 130 -55 168 -67 l67 -23 0 -39 0 -40 -42
7 c-63 10 -237 69 -307 105 l-61 30 27 41 c14 22 31 38 37 35 6 -2 56 -25 111
-49z m-2870 -127 c14 -27 25 -52 25 -55 0 -3 -66 -5 -147 -5 l-148 1 90 37
c50 21 104 46 120 55 17 9 31 16 32 17 2 0 14 -22 28 -50z m850 -22 l70 -37
-100 -1 -100 0 3 56 4 55 26 -18 c15 -9 59 -34 97 -55z m1065 17 l0 -55 -97 0
-98 0 61 33 c34 19 74 43 90 55 16 12 32 22 37 22 4 0 7 -25 7 -55z m813 24
c34 -18 89 -42 122 -55 l60 -23 -147 -1 c-90 0 -148 4 -148 10 0 11 42 100 47
100 2 0 32 -14 66 -31z m-2379 -77 c-45 -4 -50 1 -59 58 l-7 45 52 -50 51 -50
-37 -3z m1992 32 c-7 -33 -9 -34 -51 -34 l-44 0 47 44 c50 48 58 46 48 -10z"/>
<path d="M3883 3604 c-10 -26 10 -69 33 -72 27 -4 36 19 23 58 -12 33 -45 41
-56 14z"/>
<path d="M4069 3593 c-14 -38 -8 -58 20 -58 18 0 27 8 34 28 12 36 3 57 -23
57 -13 0 -24 -10 -31 -27z"/>
<path d="M3821 3586 c-24 -29 12 -95 45 -82 12 5 15 14 10 38 -10 52 -33 70
-55 44z"/>
<path d="M4151 3591 c-7 -5 -14 -26 -15 -47 -1 -29 3 -39 17 -42 24 -5 54 63
36 84 -13 16 -19 17 -38 5z"/>
</g>
</svg>
